<?xml version="1.0" encoding="UTF-8" standalone="no"?>
<!DOCTYPE svg PUBLIC "-//W3C//DTD SVG 1.1//EN" "http://www.w3.org/Graphics/SVG/1.1/DTD/svg11.dtd">
<svg width="100%" height="100%" viewBox="0 0 711 76" version="1.1" xmlns="http://www.w3.org/2000/svg" xmlns:xlink="http://www.w3.org/1999/xlink" xml:space="preserve" style="fill-rule:evenodd;clip-rule:evenodd;stroke-linejoin:round;stroke-miterlimit:1.41421;">
    <g transform="matrix(1,0,0,1,-1047.76,-2272.09)">
        <g transform="matrix(0.233045,0,0,0.233045,869.942,1949.07)">
            <path d="M855.538,1514.2C866.37,1514.2 875.965,1513.5 884.324,1512.08C892.683,1510.67 899.571,1508.14 904.986,1504.49C910.402,1500.84 914.523,1495.78 917.348,1489.3C920.174,1482.83 921.587,1474.53 921.587,1464.4C921.587,1446.03 916.112,1432.67 905.163,1424.31C894.214,1415.95 877.672,1411.77 855.538,1411.77L802.205,1411.77L802.205,1514.2L855.538,1514.2ZM872.492,1396.94C884.03,1396.94 895.038,1398.29 905.516,1401C915.994,1403.71 925.236,1407.83 933.242,1413.36C941.248,1418.9 947.606,1425.9 952.315,1434.38C957.024,1442.86 959.379,1452.86 959.379,1464.4C959.379,1476.17 957.024,1486.3 952.315,1494.78C947.606,1503.25 941.248,1510.2 933.242,1515.61C925.236,1521.03 915.994,1525.09 905.516,1527.8C895.038,1530.51 884.03,1531.86 872.492,1531.86L802.205,1531.86L802.205,1641L763,1641L763,1396.94L872.492,1396.94Z" style="fill:rgb(196,196,196);fill-rule:nonzero;"/>
        </g>
        <g transform="matrix(0.233045,0,0,0.233045,869.942,1949.07)">
            <path d="M1236.29,1541.75C1235.82,1555.64 1233.87,1569.3 1230.46,1582.72C1227.05,1596.14 1220.63,1607.8 1211.21,1617.69C1203.68,1625.46 1193.9,1632.05 1181.89,1637.47C1169.89,1642.88 1153.76,1645.59 1133.51,1645.59C1126.68,1645.59 1119.38,1645.12 1111.61,1644.18C1103.84,1643.24 1096.13,1641.41 1088.47,1638.7C1080.82,1636 1073.4,1632.35 1066.22,1627.76C1059.04,1623.16 1052.74,1617.22 1047.33,1609.92C1040.97,1601.44 1036.91,1592.14 1035.14,1582.02C1033.37,1571.89 1032.49,1559.65 1032.49,1545.28L1032.49,1396.94L1071.7,1396.94L1071.7,1549.87C1071.7,1562.35 1072.87,1572.83 1075.23,1581.31C1077.58,1589.79 1081.35,1597.2 1086.53,1603.56C1092.18,1610.62 1099.66,1616.22 1108.96,1620.34C1118.26,1624.46 1128.56,1626.52 1139.86,1626.52C1142.22,1626.52 1146.63,1626.17 1153.11,1625.46C1159.58,1624.75 1166.53,1622.69 1173.95,1619.28C1181.37,1615.86 1188.43,1610.74 1195.14,1603.91C1201.85,1597.09 1206.62,1587.43 1209.44,1574.95C1210.62,1570.24 1211.51,1565.06 1212.09,1559.41C1212.68,1553.76 1212.98,1547.87 1212.98,1541.75L1212.98,1396.94L1236.29,1396.94L1236.29,1541.75Z" style="fill:rgb(196,196,196);fill-rule:nonzero;"/>
        </g>
        <g transform="matrix(0.233045,0,0,0.233045,869.942,1949.07)">
            <path d="M1411.48,1520.21C1434.08,1520.21 1451.62,1516.38 1464.1,1508.73C1476.58,1501.07 1482.82,1487.36 1482.82,1467.58C1482.82,1447.8 1476.58,1433.55 1464.1,1424.84C1451.62,1416.13 1434.08,1411.77 1411.48,1411.77L1362.73,1411.77L1362.73,1520.21L1411.48,1520.21ZM1478.58,1641L1424.9,1537.87C1423.25,1538.1 1419.95,1538.22 1415.01,1538.22L1362.73,1538.22L1362.73,1641L1323.53,1641L1323.53,1396.94L1428.08,1396.94C1440.08,1396.94 1451.62,1398.47 1462.69,1401.53C1473.76,1404.59 1483.53,1409.12 1492,1415.13C1500.48,1421.13 1507.25,1428.55 1512.31,1437.38C1517.38,1446.21 1519.91,1456.28 1519.91,1467.58C1519.91,1475.82 1518.55,1483.41 1515.85,1490.36C1513.14,1497.31 1509.31,1503.49 1504.37,1508.9C1499.42,1514.32 1493.65,1519.03 1487.06,1523.03C1480.47,1527.03 1473.29,1530.21 1465.51,1532.57L1522.03,1641L1478.58,1641Z" style="fill:rgb(196,196,196);fill-rule:nonzero;"/>
        </g>
        <g transform="matrix(0.233045,0,0,0.233045,869.942,1949.07)">
            <path d="M1646,1411.77L1646,1504.31L1759.73,1504.31L1759.73,1519.15L1646,1519.15L1646,1626.17L1773.15,1626.17L1773.15,1641L1606.79,1641L1606.79,1396.94L1773.15,1396.94L1773.15,1411.77L1646,1411.77Z" style="fill:rgb(196,196,196);fill-rule:nonzero;"/>
        </g>
        <g transform="matrix(0.233045,0,0,0.233045,867.942,1947.38)">
            <path d="M2186.75,1547.4C2190.52,1556.11 2192.34,1564.71 2192.22,1573.19C2192.11,1581.66 2190.52,1590.38 2187.45,1599.32C2182.74,1612.98 2175.03,1623.58 2164.32,1631.11C2153.61,1638.64 2141.54,1643.71 2128.12,1646.3C2109.75,1649.6 2091.62,1648.71 2073.72,1643.65C2055.83,1638.59 2040.05,1630.52 2026.39,1619.45L2035.58,1607.09C2036.52,1607.56 2038.46,1608.74 2041.41,1610.62C2044.35,1612.51 2048.24,1614.69 2053.06,1617.16C2057.89,1619.63 2063.42,1622.1 2069.66,1624.58C2075.9,1627.05 2082.67,1629.11 2089.97,1630.76C2095.15,1631.93 2100.86,1632.64 2107.1,1632.88C2113.34,1633.11 2119.46,1632.64 2125.47,1631.46C2131.47,1630.29 2136.95,1628.29 2141.89,1625.46C2146.84,1622.63 2150.72,1618.51 2153.55,1613.1C2158.02,1605.09 2159.96,1597.5 2159.38,1590.32C2158.79,1583.13 2157.2,1577.07 2154.61,1572.13C2152.02,1567.42 2148.6,1563.47 2144.36,1560.29C2140.13,1557.12 2135.65,1554.47 2130.94,1552.35C2129.53,1551.64 2125.7,1550.17 2119.46,1547.93C2113.22,1545.69 2106.39,1543.22 2098.98,1540.52C2091.56,1537.81 2084.62,1535.28 2078.14,1532.92C2071.66,1530.57 2067.48,1528.92 2065.6,1527.98C2057.83,1524.21 2050.59,1519.68 2043.88,1514.38C2037.17,1509.08 2032.05,1502.31 2028.52,1494.07C2024.75,1485.36 2022.92,1476.76 2023.04,1468.29C2023.16,1459.81 2024.75,1451.1 2027.81,1442.15C2032.52,1428.49 2040.23,1417.84 2050.94,1410.18C2061.66,1402.53 2073.84,1397.53 2087.5,1395.17C2103.75,1392.35 2119.99,1392.82 2136.24,1396.59C2152.49,1400.35 2167.56,1407.65 2181.45,1418.48L2172.27,1431.2C2170.85,1430.02 2166.09,1427.14 2157.96,1422.55C2149.84,1417.95 2138.95,1414.01 2125.29,1410.71C2120.11,1409.54 2114.4,1408.77 2108.16,1408.42C2101.92,1408.07 2095.86,1408.48 2089.97,1409.65C2084.09,1410.83 2078.61,1412.89 2073.55,1415.84C2068.49,1418.78 2064.54,1422.84 2061.72,1428.02C2057.24,1436.26 2055.36,1443.97 2056.06,1451.15C2056.77,1458.34 2058.42,1464.4 2061.01,1469.35C2063.36,1474.05 2066.66,1478 2070.9,1481.18C2075.14,1484.36 2079.61,1487.01 2084.32,1489.12C2085.73,1489.83 2089.62,1491.3 2095.98,1493.54C2102.33,1495.78 2109.22,1498.25 2116.64,1500.96C2124.05,1503.66 2131,1506.19 2137.48,1508.55C2143.95,1510.9 2148.13,1512.55 2150.01,1513.5C2157.55,1517.26 2164.67,1521.8 2171.38,1527.09C2178.1,1532.39 2183.22,1539.16 2186.75,1547.4Z" style="fill:rgb(196,196,196);fill-rule:nonzero;"/>
        </g>
        <g transform="matrix(0.233045,0,0,0.233045,867.942,1947.38)">
            <path d="M2498.98,1614.86L2498.98,1615.57C2488.14,1624.75 2476.02,1631.7 2462.6,1636.41C2445.41,1643 2426.69,1646.3 2406.44,1646.3C2387.13,1646.3 2369.35,1643.41 2353.11,1637.64C2336.86,1631.88 2322.85,1623.58 2311.07,1612.74C2299.3,1601.91 2290.12,1588.73 2283.53,1573.19C2276.93,1557.64 2273.64,1540.1 2273.64,1520.56C2273.64,1501.72 2276.7,1484.53 2282.82,1468.99C2288.94,1453.45 2297.83,1440.09 2309.49,1428.9C2321.14,1417.72 2335.39,1409.01 2352.22,1402.77C2369.06,1396.53 2388.31,1393.41 2409.97,1393.41C2427.16,1393.41 2443.35,1395.76 2458.53,1400.47C2473.72,1405.18 2487.2,1412.01 2498.98,1420.96L2486.97,1437.91C2481.32,1432.73 2474.96,1428.26 2467.89,1424.49C2460.83,1420.72 2453.71,1417.66 2446.53,1415.31C2439.35,1412.95 2432.4,1411.24 2425.69,1410.18C2418.98,1409.12 2413.15,1408.6 2408.2,1408.6C2396.43,1408.6 2384.89,1410.65 2373.59,1414.78C2362.29,1418.9 2352.22,1425.43 2343.39,1434.38C2334.56,1443.33 2327.44,1454.86 2322.02,1468.99C2316.61,1483.12 2313.9,1500.19 2313.9,1520.21C2313.9,1537.39 2316.2,1552.88 2320.79,1566.65C2325.38,1580.43 2331.8,1592.08 2340.04,1601.62C2348.28,1611.15 2358.11,1618.45 2369.53,1623.52C2380.95,1628.58 2393.49,1631.11 2407.14,1631.11C2413.97,1631.11 2421.1,1630.4 2428.51,1628.99C2435.93,1627.58 2443.23,1625.52 2450.41,1622.81C2457.59,1620.1 2464.48,1616.92 2471.07,1613.27C2477.67,1609.62 2483.67,1605.56 2489.09,1601.09L2498.98,1614.86Z" style="fill:rgb(196,196,196);fill-rule:nonzero;"/>
        </g>
        <g transform="matrix(0.233045,0,0,0.233045,867.942,1947.38)">
            <path d="M2720.08,1561.18L2670.63,1442.15L2621.54,1561.18L2720.08,1561.18ZM2726.44,1576.01L2615.53,1576.01L2588.69,1641L2565.38,1641L2666.04,1396.94L2695.36,1396.94L2796.72,1641L2753.28,1641L2726.44,1576.01Z" style="fill:rgb(196,196,196);fill-rule:nonzero;"/>
        </g>
        <g transform="matrix(0.233045,0,0,0.233045,867.942,1947.38)">
            <path d="M2967.32,1520.21C2989.92,1520.21 3007.47,1516.38 3019.95,1508.73C3032.43,1501.07 3038.67,1487.36 3038.67,1467.58C3038.67,1447.8 3032.43,1433.55 3019.95,1424.84C3007.47,1416.13 2989.92,1411.77 2967.32,1411.77L2918.58,1411.77L2918.58,1520.21L2967.32,1520.21ZM3034.43,1641L2980.74,1537.87C2979.09,1538.1 2975.8,1538.22 2970.85,1538.22L2918.58,1538.22L2918.58,1641L2879.37,1641L2879.37,1396.94L2983.92,1396.94C2995.93,1396.94 3007.47,1398.47 3018.53,1401.53C3029.6,1404.59 3039.37,1409.12 3047.85,1415.13C3056.33,1421.13 3063.1,1428.55 3068.16,1437.38C3073.22,1446.21 3075.75,1456.28 3075.75,1467.58C3075.75,1475.82 3074.4,1483.41 3071.69,1490.36C3068.98,1497.31 3065.16,1503.49 3060.21,1508.9C3055.27,1514.32 3049.5,1519.03 3042.9,1523.03C3036.31,1527.03 3029.13,1530.21 3021.36,1532.57L3077.87,1641L3034.43,1641Z" style="fill:rgb(196,196,196);fill-rule:nonzero;"/>
        </g>
        <g transform="matrix(0.233045,0,0,0.233045,867.942,1947.38)">
            <path d="M3329,1641L3162.64,1641L3162.64,1396.94L3201.84,1396.94L3201.84,1626.17L3329,1626.17L3329,1641Z" style="fill:rgb(196,196,196);fill-rule:nonzero;"/>
        </g>
        <g transform="matrix(0.233045,0,0,0.233045,867.942,1947.38)">
            <path d="M3435.66,1411.77L3435.66,1504.31L3549.39,1504.31L3549.39,1519.15L3435.66,1519.15L3435.66,1626.17L3562.81,1626.17L3562.81,1641L3396.46,1641L3396.46,1396.94L3562.81,1396.94L3562.81,1411.77L3435.66,1411.77Z" style="fill:rgb(196,196,196);fill-rule:nonzero;"/>
        </g>
        <g transform="matrix(0.233045,0,0,0.233045,867.942,1947.38)">
            <path d="M3820.3,1411.77L3745.77,1411.77L3745.77,1641L3706.57,1641L3706.57,1411.77L3632.04,1411.77L3632.04,1396.94L3820.3,1396.94L3820.3,1411.77Z" style="fill:rgb(196,196,196);fill-rule:nonzero;"/>
        </g>
        <g transform="matrix(0.902918,0,-1.57083e-18,15.5788,142.02,-33508.1)">
            <rect x="1328" y="2301.37" width="462" height="0.206" style="fill:rgb(255,6,20);"/>
        </g>
    </g>
</svg>
