<?xml version="1.0" encoding="UTF-8" standalone="no"?>
<!DOCTYPE svg PUBLIC "-//W3C//DTD SVG 1.1//EN" "http://www.w3.org/Graphics/SVG/1.1/DTD/svg11.dtd">
<svg width="100%" height="100%" viewBox="0 0 2363 2360" version="1.1" xmlns="http://www.w3.org/2000/svg" xmlns:xlink="http://www.w3.org/1999/xlink" xml:space="preserve" xmlns:serif="http://www.serif.com/" style="fill-rule:evenodd;clip-rule:evenodd;stroke-linejoin:round;stroke-miterlimit:1.41421;">
    <g transform="matrix(1,0,0,1,-37061.9,-16250)">
        <g transform="matrix(1,0,0,1,2729,4701.9)">
            <g transform="matrix(0.907773,0,0,0.907773,3411.11,992.228)">
                <g transform="matrix(0.61203,0,0,0.61203,26868.5,5480.42)">
                    <g transform="matrix(1.21636,0,0,1.12685,-3148.18,-1494.56)">
                        <ellipse cx="14289" cy="11317" rx="379" ry="473"/>
                    </g>
                    <path d="M13569.9,12549.9C13602.7,12210.7 13808.5,11935.4 14077.1,11857.9C14125.6,11878 14177.9,11889 14232.4,11889C14286.5,11889 14338.6,11878.2 14386.8,11858.3C14654.9,11936.2 14860.1,12211.2 14892.8,12549.9L13569.9,12549.9Z"/>
                </g>
                <g transform="matrix(1.2612,0,0,1.2612,-12921.2,-4204.39)">
                    <g transform="matrix(522.894,0,0,522.894,37800.7,14285)">
                        <path d="M0.076,-0.153C0.128,-0.153 0.154,-0.171 0.154,-0.207L0.154,-0.826L0.318,-0.826L0.318,-0.207C0.318,-0.143 0.294,-0.093 0.246,-0.054C0.201,-0.018 0.144,-0 0.076,-0L-0.011,-0L-0.011,-0.153L0.076,-0.153Z" style="fill-rule:nonzero;"/>
                    </g>
                    <g transform="matrix(522.894,0,0,522.894,38010.4,14285)">
                        <path d="M0.197,-0.673L0.197,-0.153L0.353,-0.153L0.353,-0.673L0.197,-0.673ZM0.396,-0.826C0.428,-0.826 0.457,-0.815 0.48,-0.793C0.505,-0.771 0.517,-0.745 0.517,-0.713L0.517,-0.113C0.517,-0.082 0.505,-0.055 0.48,-0.033C0.457,-0.011 0.428,-0 0.396,-0L0.154,-0C0.121,-0 0.093,-0.011 0.069,-0.033C0.045,-0.055 0.033,-0.082 0.033,-0.113L0.033,-0.713C0.033,-0.745 0.045,-0.771 0.069,-0.793C0.093,-0.815 0.121,-0.826 0.154,-0.826L0.396,-0.826Z" style="fill-rule:nonzero;"/>
                    </g>
                    <g transform="matrix(522.894,0,0,522.894,38325.7,14285)">
                        <rect x="0.041" y="-0.826" width="0.164" height="0.826" style="fill-rule:nonzero;"/>
                    </g>
                    <g transform="matrix(522.894,0,0,522.894,38479.9,14285)">
                        <path d="M0.205,-0.532L0.205,-0L0.041,-0L0.041,-0.826L0.269,-0.826L0.403,-0.292L0.403,-0.826L0.567,-0.826L0.567,-0L0.34,-0L0.205,-0.532Z" style="fill-rule:nonzero;"/>
                    </g>
                </g>
                <g transform="matrix(1013.6,0,0,1013.6,34699.6,13059.6)">
                    <path d="M0.343,-0.521L0.502,-0.521L0.502,-0.382L0.343,-0.382L0.343,-0.223L0.205,-0.223L0.205,-0.382L0.045,-0.382L0.045,-0.521L0.205,-0.521L0.205,-0.68L0.343,-0.68L0.343,-0.521Z" style="fill-rule:nonzero;"/>
                </g>
            </g>
            <g transform="matrix(1,0,0,1,2417.97,660.138)">
                <path d="M33096.1,10902.6C33739.9,10902.6 34262.6,11424.7 34262.6,12067.9C34262.6,12711.1 33739.9,13233.2 33096.1,13233.2C32452.3,13233.2 31929.6,12711.1 31929.6,12067.9C31929.6,11424.7 32452.3,10902.6 33096.1,10902.6ZM33096.1,10955.9C33709.8,10955.9 34208.1,11454.2 34208.1,12067.9C34208.1,12681.6 33709.8,13179.9 33096.1,13179.9C32482.3,13179.9 31984.1,12681.6 31984.1,12067.9C31984.1,11454.2 32482.3,10955.9 33096.1,10955.9Z" style="stroke:rgb(88,88,88);stroke-width:29.17px;"/>
            </g>
        </g>
    </g>
</svg>
