<?xml version="1.0" encoding="UTF-8" standalone="no"?>
<!DOCTYPE svg PUBLIC "-//W3C//DTD SVG 1.1//EN" "http://www.w3.org/Graphics/SVG/1.1/DTD/svg11.dtd">
<svg width="100%" height="100%" viewBox="0 0 2363 2360" version="1.1" xmlns="http://www.w3.org/2000/svg" xmlns:xlink="http://www.w3.org/1999/xlink" xml:space="preserve" xmlns:serif="http://www.serif.com/" style="fill-rule:evenodd;clip-rule:evenodd;stroke-linejoin:round;stroke-miterlimit:1.41421;">
    <g transform="matrix(1,0,0,1,-31875,-8307.98)">
        <g transform="matrix(1,0,0,1,2603.06,-2746)">
            <path d="M29908,11801L30998,11801" style="fill:none;"/>
            <rect x="29908" y="11655.2" width="1090" height="291.667"/>
        </g>
        <g transform="matrix(1,0,0,1,2603.06,-2313.1)">
            <path d="M29908,11801L30998,11801" style="fill:none;"/>
            <rect x="29908" y="11655.2" width="1090" height="291.667"/>
        </g>
        <g transform="matrix(1,0,0,1,2603.06,-1881)">
            <path d="M29908,11801L30998,11801" style="fill:none;"/>
            <rect x="29908" y="11655.2" width="1090" height="291.667"/>
        </g>
        <g transform="matrix(1,0,0,1,-40,-2580)">
            <path d="M33096.1,10902.6C33739.9,10902.6 34262.6,11424.7 34262.6,12067.9C34262.6,12711.1 33739.9,13233.2 33096.1,13233.2C32452.3,13233.2 31929.6,12711.1 31929.6,12067.9C31929.6,11424.7 32452.3,10902.6 33096.1,10902.6ZM33096.1,10955.9C33709.8,10955.9 34208.1,11454.2 34208.1,12067.9C34208.1,12681.6 33709.8,13179.9 33096.1,13179.9C32482.3,13179.9 31984.1,12681.6 31984.1,12067.9C31984.1,11454.2 32482.3,10955.9 33096.1,10955.9Z" style="stroke:black;stroke-width:29.17px;"/>
        </g>
    </g>
</svg>
