<?xml version="1.0" encoding="UTF-8" standalone="no"?>
<!DOCTYPE svg PUBLIC "-//W3C//DTD SVG 1.1//EN" "http://www.w3.org/Graphics/SVG/1.1/DTD/svg11.dtd">
<svg width="100%" height="100%" viewBox="0 0 585 585" version="1.1" xmlns="http://www.w3.org/2000/svg" xmlns:xlink="http://www.w3.org/1999/xlink" xml:space="preserve" xmlns:serif="http://www.serif.com/" style="fill-rule:evenodd;clip-rule:evenodd;stroke-linejoin:round;stroke-miterlimit:2;">
    <g transform="matrix(1,0,0,1,-9553.16,-5150.49)">
        <g transform="matrix(1.2239,0,0,1.2239,-2420.3,-1354.51)">
            <path d="M10021.7,5314.96C10153.5,5314.96 10260.4,5421.92 10260.4,5553.67C10260.4,5685.42 10153.5,5792.39 10021.7,5792.39C9889.96,5792.39 9783,5685.42 9783,5553.67C9783,5421.92 9889.96,5314.96 10021.7,5314.96ZM9979.44,5561.6L9871.45,5690.73L9918.63,5690.73L10001.7,5591.45L10075.6,5690.73L10172,5690.73L10051.7,5531.68L10148,5416.62L10100.7,5416.62L10029.3,5502.02L9964.69,5416.64L9871.45,5416.62L9979.44,5561.6ZM10087.9,5658.03L9922.8,5442.51L9951,5442.57L10112.6,5658.09L10087.9,5658.03Z"/>
        </g>
    </g>
</svg>
