<?xml version="1.0" encoding="UTF-8" standalone="no"?>
<!DOCTYPE svg PUBLIC "-//W3C//DTD SVG 1.1//EN" "http://www.w3.org/Graphics/SVG/1.1/DTD/svg11.dtd">
<svg width="100%" height="100%" viewBox="0 0 2412 1665" version="1.1" xmlns="http://www.w3.org/2000/svg" xmlns:xlink="http://www.w3.org/1999/xlink" xml:space="preserve" xmlns:serif="http://www.serif.com/" style="fill-rule:evenodd;clip-rule:evenodd;stroke-linejoin:round;stroke-miterlimit:2;">
    <g transform="matrix(1,0,0,1,-8884.61,-38343.1)">
        <g>
            <g transform="matrix(2.03888,0,0,2.19241,-14464.7,-48482.9)">
                <rect x="11452" y="39603" width="1183" height="759" style="fill:rgb(146,92,92);fill-opacity:0;"/>
            </g>
            <path d="M10913.4,39363.7C10683.4,39561.1 10471.1,39729.9 10085.8,39733.6C9681.81,39737.4 9441.61,39544.5 9262.64,39359.4C9236.85,39332.8 9237.56,39290.2 9264.22,39264.4C9290.89,39238.6 9333.49,39239.3 9359.28,39266C9517.25,39429.3 9727.93,39602.5 10084.6,39599.1C10430.7,39595.8 10619.2,39439 10825.8,39261.7C10854,39237.5 10896.4,39240.8 10920.6,39268.9C10944.8,39297.1 10941.5,39339.6 10913.4,39363.7ZM10450.7,38826.6C10592.7,38889.7 10706.5,38985.7 10826.5,39088.6C10854.6,39112.8 10897.1,39109.6 10921.3,39081.4C10945.4,39053.3 10942.2,39010.8 10914,38986.6C10684.1,38789.2 10471.8,38620.4 10086.5,38616.8C9682.47,38612.9 9442.27,38805.9 9263.3,38990.9C9237.51,39017.6 9238.21,39060.2 9264.88,39085.9C9291.55,39111.7 9334.14,39111 9359.94,39084.4C9458.16,38982.8 9576.77,38877.4 9738.18,38813.1C9696.69,38877.9 9672.64,38955 9672.64,39037.6C9672.64,39268.1 9859.78,39455.3 10090.3,39455.3C10320.8,39455.3 10507.9,39268.1 10507.9,39037.6C10507.9,38960.7 10487,38888.5 10450.7,38826.6ZM9906,38885.4C9985.75,38885.4 10050.5,38950.2 10050.5,39029.9C10050.5,39109.7 9985.75,39174.4 9906,39174.4C9826.25,39174.4 9761.5,39109.7 9761.5,39029.9C9761.5,38950.2 9826.25,38885.4 9906,38885.4Z" style="fill:white;stroke:white;stroke-width:1px;"/>
        </g>
    </g>
</svg>
